<?xml version="1.0" encoding="utf-8"?>
<svg width="1280px" height="720px" viewBox="0 0 1280 720" version="1.1" xmlns:xlink="http://www.w3.org/1999/xlink" xmlns="http://www.w3.org/2000/svg">
  <desc>Created with Lunacy</desc>
  <defs>
    <path d="M0 0L185 0L185 185L0 185L0 0Z" id="path_1" />
    <path d="M0 0L185 0L185 185L0 185L0 0L0 0Z" id="path_2" />
    <rect width="1280" height="720" id="artboard_1" />
    <clipPath id="clip_1">
      <use xlink:href="#artboard_1" clip-rule="evenodd" />
    </clipPath>
    <clipPath id="mask_1">
      <use xlink:href="#path_1" />
    </clipPath>
    <clipPath id="mask_2">
      <use xlink:href="#path_2" />
    </clipPath>
  </defs>
  <g id="Title" clip-path="url(#clip_1)">
    <use xlink:href="#artboard_1" stroke="none" fill="#FFFFFF" />
    <g id="Google-Script-Icon-instance" transform="translate(104 268.0001)">
      <g id="Google-Script-Icon">
        <path d="M0 0L185 0L185 185L0 185L0 0Z" id="Background" fill="none" stroke="none" />
        <g clip-path="url(#mask_1)">
          <g id="Mask-group">
            <path d="M0 0L185 0L185 185L0 185L0 0Z" id="artboard_1" fill="none" stroke="none" />
            <g clip-path="url(#mask_1)">
              <g id="Artboard">
                <path d="M0 0L185 0L185 185L0 185L0 0Z" id="artboard_1" fill="#FFFFFF" stroke="none" />
                <g id="svg">
                  <path d="M0 0L185 0L185 185L0 185L0 0L0 0Z" id="Background" fill="none" stroke="none" />
                  <g id="Mask-group">
                    <path d="M0 0L185 0L185 185L0 185L0 0L0 0Z" id="path_1" fill="none" stroke="none" />
                    <g clip-path="url(#mask_2)">
                      <g id="Group" transform="translate(-30.83333 -30.83333)">
                        <g id="Group">
                          <path d="M0 0L246.667 0L246.667 246.667L0 246.667L0 0L0 0Z" id="Polygon" fill="none" stroke="none" />
                          <path d="M164.444 0L20.5556 0C9.25 0 0.102778 9.25 0.102778 20.5556L0.102778 61.6667L0 61.6667L0 164.444C0 175.75 9.25 185 20.5556 185L164.444 185C175.75 185 185 175.75 185 164.444L185 20.5556C185 9.25 175.75 0 164.444 0ZM82.2222 143.889L82.2222 113.056L20.5556 113.056L20.5556 71.9444L82.2222 71.9444L82.2222 41.1111L133.611 92.5L82.2222 143.889Z" transform="translate(30.83333 30.83333)" id="Shape" fill="#4285F4" fill-rule="evenodd" stroke="none" />
                        </g>
                      </g>
                    </g>
                  </g>
                </g>
              </g>
            </g>
          </g>
        </g>
      </g>
    </g>
    <g id="Awesome-Google-Script" transform="translate(344 308.0001)">
      <path d="M747.46 24.675Q746.27 25.76 746.27 27.51Q746.27 29.26 747.46 30.345Q748.65 31.43 750.61 31.43Q752.57 31.43 753.76 30.345Q754.95 29.26 754.95 27.51Q754.95 25.76 753.76 24.675Q752.57 23.59 750.61 23.59Q748.65 23.59 747.46 24.675ZM566.09 25.41L566.09 77.21L559.72 77.21L559.72 25.41L566.09 25.41ZM668.5 64.4Q668.5 67.9 666.82 70.91Q665.14 73.92 661.71 75.81Q658.28 77.7 653.24 77.7Q648.34 77.7 644.525 75.915Q640.71 74.13 638.435 71.015Q636.16 67.9 635.81 63.91L642.6 63.91Q642.81 66.01 644.035 68.005Q645.26 70 647.535 71.295Q649.81 72.59 653.03 72.59Q657.23 72.59 659.47 70.35Q661.71 68.11 661.71 64.61Q661.71 61.6 660.135 59.71Q658.56 57.82 656.25 56.735Q653.94 55.65 649.95 54.39Q645.26 52.85 642.425 51.485Q639.59 50.12 637.595 47.39Q635.6 44.66 635.6 40.18Q635.6 36.33 637.455 33.39Q639.31 30.45 642.775 28.84Q646.24 27.23 650.93 27.23Q658.21 27.23 662.48 30.765Q666.75 34.3 667.45 39.76L660.59 39.76Q660.03 36.82 657.58 34.58Q655.13 32.34 650.93 32.34Q647.08 32.34 644.77 34.335Q642.46 36.33 642.46 39.97Q642.46 42.84 643.965 44.625Q645.47 46.41 647.71 47.425Q649.95 48.44 653.87 49.7Q658.63 51.24 661.535 52.64Q664.44 54.04 666.47 56.875Q668.5 59.71 668.5 64.4ZM390.46 27.37Q399.07 27.37 404.915 31.64Q410.76 35.91 412.79 43.26L406.07 43.26Q404.32 38.78 400.225 36.05Q396.13 33.32 390.53 33.32Q385.49 33.32 381.5 35.665Q377.51 38.01 375.235 42.35Q372.96 46.69 372.96 52.57Q372.96 58.59 375.27 62.965Q377.58 67.34 381.675 69.685Q385.77 72.03 391.09 72.03Q395.64 72.03 399.42 70.07Q403.2 68.11 405.615 64.365Q408.03 60.62 408.52 55.58L389.13 55.58L389.13 50.82L413.91 50.82L413.91 56.7Q413.28 62.58 410.27 67.34Q407.26 72.1 402.15 74.9Q397.04 77.7 390.53 77.7Q383.39 77.7 377.93 74.515Q372.47 71.33 369.425 65.625Q366.38 59.92 366.38 52.57Q366.38 45.22 369.425 39.515Q372.47 33.81 377.93 30.59Q383.39 27.37 390.46 27.37ZM34.02 65.8L12.32 65.8L8.19 77.21L1.33 77.21L19.6 28.77L26.81 28.77L45.01 77.21L38.15 77.21L34.02 65.8ZM829.5 77.21L829.5 71.61L825.58 71.61Q822.22 71.61 820.855 70.245Q819.49 68.88 819.49 65.17L819.49 44.31L829.43 44.31L829.43 38.78L819.49 38.78L819.49 29.19L813.05 29.19L813.05 38.78L807.31 38.78L807.31 44.31L813.05 44.31L813.05 65.03Q813.05 71.61 815.955 74.41C817.892 76.2767 820.82 77.21 824.74 77.21L829.5 77.21ZM32.2 60.83L23.17 35.91L14.14 60.83L32.2 60.83ZM282.31 38.15Q289.03 38.15 293.125 42.455Q297.22 46.76 297.22 54.88L297.22 77.21L290.85 77.21L290.85 55.44Q290.85 49.77 288.085 46.76Q285.32 43.75 280.49 43.75Q275.45 43.75 272.405 47.075Q269.36 50.4 269.36 56.84L269.36 77.21L262.99 77.21L262.99 55.44Q262.99 49.77 260.19 46.76Q257.39 43.75 252.63 43.75Q247.52 43.75 244.475 47.075Q241.43 50.4 241.43 56.84L241.43 77.21L235.06 77.21L235.06 38.78L241.43 38.78L241.43 47.53Q242.83 42.98 246.435 40.565Q250.04 38.15 254.73 38.15Q259.63 38.15 263.235 40.635Q266.84 43.12 268.38 47.95Q269.99 43.26 273.77 40.705Q277.55 38.15 282.31 38.15ZM726.88 46.55Q728.77 42.56 732.41 40.355Q736.05 38.15 741.09 38.15L741.09 45.08L739.13 45.08Q733.74 45.08 730.31 47.845Q726.88 50.61 726.88 56.98L726.88 77.21L720.51 77.21L720.51 38.78L726.88 38.78L726.88 46.55ZM145.25 59.36Q145.53 57.89 145.53 55.86Q145.53 51.03 143.325 47.04Q141.12 43.05 136.955 40.67Q132.79 38.29 127.19 38.29Q121.66 38.29 117.39 40.67Q113.12 43.05 110.705 47.53Q108.29 52.01 108.29 58.03Q108.29 64.05 110.705 68.495Q113.12 72.94 117.39 75.32Q121.66 77.7 127.19 77.7Q132.02 77.7 135.87 75.95Q139.72 74.2 142.135 71.05Q144.55 67.9 145.25 63.91L138.46 63.91Q137.76 67.83 134.645 70.175Q131.53 72.52 126.91 72.52Q121.8 72.52 118.265 69.23Q114.73 65.94 114.52 59.36L145.25 59.36ZM165.9 38.29Q172.41 38.29 176.365 41.685Q180.32 45.08 181.16 50.82L175.07 50.82Q174.65 47.39 172.235 45.185Q169.82 42.98 165.76 42.98Q162.33 42.98 160.405 44.625Q158.48 46.27 158.48 49.07Q158.48 51.17 159.775 52.465Q161.07 53.76 162.995 54.425Q164.92 55.09 168.28 55.86Q172.55 56.84 175.175 57.855Q177.8 58.87 179.655 61.11Q181.51 63.35 181.51 67.13Q181.51 71.82 177.975 74.76Q174.44 77.7 168.56 77.7Q161.7 77.7 157.36 74.41Q153.02 71.12 152.25 65.24L158.41 65.24Q158.76 68.74 161.455 70.91Q164.15 73.08 168.56 73.08Q171.85 73.08 173.705 71.4Q175.56 69.72 175.56 66.99Q175.56 64.75 174.23 63.42Q172.9 62.09 170.94 61.39Q168.98 60.69 165.55 59.92Q161.28 58.94 158.725 57.96Q156.17 56.98 154.385 54.845Q152.6 52.71 152.6 49.07Q152.6 44.24 156.17 41.265Q159.74 38.29 165.9 38.29ZM217.385 40.67Q213.01 38.29 207.48 38.29Q201.95 38.29 197.575 40.67Q193.2 43.05 190.68 47.53Q188.16 52.01 188.16 58.03Q188.16 64.05 190.68 68.495Q193.2 72.94 197.575 75.32Q201.95 77.7 207.48 77.7Q213.01 77.7 217.385 75.32Q221.76 72.94 224.245 68.495Q226.73 64.05 226.73 58.03Q226.73 52.01 224.245 47.53Q221.76 43.05 217.385 40.67ZM342.16 59.36Q342.44 57.89 342.44 55.86Q342.44 51.03 340.235 47.04Q338.03 43.05 333.865 40.67Q329.7 38.29 324.1 38.29Q318.57 38.29 314.3 40.67Q310.03 43.05 307.615 47.53Q305.2 52.01 305.2 58.03Q305.2 64.05 307.615 68.495Q310.03 72.94 314.3 75.32Q318.57 77.7 324.1 77.7Q328.93 77.7 332.78 75.95Q336.63 74.2 339.045 71.05Q341.46 67.9 342.16 63.91L335.37 63.91Q334.67 67.83 331.555 70.175Q328.44 72.52 323.82 72.52Q318.71 72.52 315.175 69.23Q311.64 65.94 311.43 59.36L342.16 59.36ZM449.855 40.67Q445.48 38.29 439.95 38.29Q434.42 38.29 430.045 40.67Q425.67 43.05 423.15 47.53Q420.63 52.01 420.63 58.03Q420.63 64.05 423.15 68.495Q425.67 72.94 430.045 75.32Q434.42 77.7 439.95 77.7Q445.48 77.7 449.855 75.32Q454.23 72.94 456.715 68.495Q459.2 64.05 459.2 58.03Q459.2 52.01 456.715 47.53Q454.23 43.05 449.855 40.67ZM484.96 38.29Q490.49 38.29 494.865 40.67Q499.24 43.05 501.725 47.53Q504.21 52.01 504.21 58.03Q504.21 64.05 501.725 68.495Q499.24 72.94 494.865 75.32Q490.49 77.7 484.96 77.7Q479.43 77.7 475.055 75.32Q470.68 72.94 468.16 68.495Q465.64 64.05 465.64 58.03Q465.64 52.01 468.16 47.53Q470.68 43.05 475.055 40.67Q479.43 38.29 484.96 38.29ZM537.775 41.09Q533.89 38.29 528.29 38.29Q523.18 38.29 519.19 40.67Q515.2 43.05 512.925 47.53Q510.65 52.01 510.65 58.03Q510.65 64.05 512.925 68.495Q515.2 72.94 519.19 75.32Q523.18 77.7 528.29 77.7Q533.89 77.7 537.775 74.9Q541.66 72.1 543.2 67.41L543.2 77.84Q543.2 83.79 539.805 87.115Q536.41 90.44 531.23 90.44Q526.33 90.44 523.215 88.235Q520.1 86.03 518.98 82.18L512.68 82.18Q514.01 88.55 518.91 92.295Q523.81 96.04 531.58 96.04Q536.97 96.04 541.03 93.73Q545.09 91.42 547.33 87.29Q549.57 83.16 549.57 77.84L549.57 38.78L543.2 38.78L543.2 48.58Q541.66 43.89 537.775 41.09ZM611.38 59.36Q611.66 57.89 611.66 55.86Q611.66 51.03 609.455 47.04Q607.25 43.05 603.085 40.67Q598.92 38.29 593.32 38.29Q587.79 38.29 583.52 40.67Q579.25 43.05 576.835 47.53Q574.42 52.01 574.42 58.03Q574.42 64.05 576.835 68.495Q579.25 72.94 583.52 75.32Q587.79 77.7 593.32 77.7Q598.15 77.7 602 75.95Q605.85 74.2 608.265 71.05Q610.68 67.9 611.38 63.91L604.59 63.91Q603.89 67.83 600.775 70.175Q597.66 72.52 593.04 72.52Q587.93 72.52 584.395 69.23Q580.86 65.94 580.65 59.36L611.38 59.36ZM706.23 42.21Q701.4 38.29 694.05 38.29Q688.52 38.29 684.25 40.67Q679.98 43.05 677.565 47.53Q675.15 52.01 675.15 58.03Q675.15 64.05 677.565 68.495Q679.98 72.94 684.25 75.32Q688.52 77.7 694.05 77.7Q701.4 77.7 706.23 73.815Q711.06 69.93 712.18 63.28L705.46 63.28Q704.76 67.41 701.645 69.79Q698.53 72.17 693.91 72.17Q690.55 72.17 687.785 70.63Q685.02 69.09 683.34 65.905Q681.66 62.72 681.66 58.03Q681.66 53.34 683.34 50.155Q685.02 46.97 687.785 45.43Q690.55 43.89 693.91 43.89Q698.53 43.89 701.645 46.235Q704.76 48.58 705.46 52.71L712.18 52.71Q711.06 46.13 706.23 42.21ZM785.19 38.29Q790.3 38.29 794.29 40.67Q798.28 43.05 800.555 47.53Q802.83 52.01 802.83 58.03Q802.83 64.05 800.555 68.495Q798.28 72.94 794.29 75.32Q790.3 77.7 785.19 77.7Q779.59 77.7 775.705 74.865Q771.82 72.03 770.35 67.41L770.35 95.41L763.98 95.41L763.98 38.78L770.35 38.78L770.35 48.58Q771.82 43.96 775.705 41.125Q779.59 38.29 785.19 38.29ZM104.23 38.78L93.17 77.21L86.31 77.21L75.74 45.92L65.1 77.21L58.17 77.21L47.25 38.78L53.69 38.78L61.88 71.12L72.52 38.78L79.17 38.78L89.88 71.05L98.14 38.78L104.23 38.78ZM753.76 77.21L753.76 38.78L747.39 38.78L747.39 77.21L753.76 77.21ZM137.69 49.14Q139.3 52.01 139.09 56.28L114.52 56.28Q114.8 49.98 118.37 46.725Q121.94 43.47 127.19 43.47Q130.48 43.47 133.28 44.87Q136.08 46.27 137.69 49.14ZM334.6 49.14Q336.21 52.01 336 56.28L311.43 56.28Q311.71 49.98 315.28 46.725Q318.85 43.47 324.1 43.47Q327.39 43.47 330.19 44.87Q332.99 46.27 334.6 49.14ZM603.82 49.14Q605.43 52.01 605.22 56.28L580.65 56.28Q580.93 49.98 584.5 46.725Q588.07 43.47 593.32 43.47Q596.61 43.47 599.41 44.87Q602.21 46.27 603.82 49.14ZM201.145 45.43Q204.05 43.89 207.48 43.89Q210.91 43.89 213.815 45.43Q216.72 46.97 218.505 50.155Q220.29 53.34 220.29 58.03Q220.29 62.65 218.505 65.835Q216.72 69.02 213.815 70.56Q210.91 72.1 207.48 72.1Q204.05 72.1 201.145 70.56Q198.24 69.02 196.455 65.835Q194.67 62.65 194.67 58.03Q194.67 53.34 196.455 50.155Q198.24 46.97 201.145 45.43ZM433.615 45.43Q436.52 43.89 439.95 43.89Q443.38 43.89 446.285 45.43Q449.19 46.97 450.975 50.155Q452.76 53.34 452.76 58.03Q452.76 62.65 450.975 65.835Q449.19 69.02 446.285 70.56Q443.38 72.1 439.95 72.1Q436.52 72.1 433.615 70.56Q430.71 69.02 428.925 65.835Q427.14 62.65 427.14 58.03Q427.14 53.34 428.925 50.155Q430.71 46.97 433.615 45.43ZM484.96 43.89Q481.53 43.89 478.625 45.43Q475.72 46.97 473.935 50.155Q472.15 53.34 472.15 58.03Q472.15 62.65 473.935 65.835Q475.72 69.02 478.625 70.56Q481.53 72.1 484.96 72.1Q488.39 72.1 491.295 70.56Q494.2 69.02 495.985 65.835Q497.77 62.65 497.77 58.03Q497.77 53.34 495.985 50.155Q494.2 46.97 491.295 45.43Q488.39 43.89 484.96 43.89ZM520.695 47.705Q524.23 43.96 530.11 43.96Q533.89 43.96 536.865 45.675Q539.84 47.39 541.52 50.61Q543.2 53.83 543.2 58.03Q543.2 62.23 541.52 65.415Q539.84 68.6 536.865 70.35Q533.89 72.1 530.11 72.1Q524.23 72.1 520.695 68.355Q517.16 64.61 517.16 58.03Q517.16 51.45 520.695 47.705ZM783.37 43.96Q779.66 43.96 776.65 45.675Q773.64 47.39 771.96 50.61Q770.28 53.83 770.28 58.03Q770.28 62.23 771.96 65.415Q773.64 68.6 776.65 70.35Q779.66 72.1 783.37 72.1Q789.32 72.1 792.855 68.355Q796.39 64.61 796.39 58.03Q796.39 51.45 792.855 47.705Q789.32 43.96 783.37 43.96Z" />
    </g>
  </g>
</svg>